<svg width="929" height="217" viewBox="0 0 929 217" fill="none" xmlns="http://www.w3.org/2000/svg">
<g clip-path="url(#clip0_205_227)" filter="url(#filter0_d_205_227)">
<path d="M925 0H4V209H925V0Z" fill="white"/>
<path d="M221 27.5H79C77.6193 27.5 76.5 28.6193 76.5 30V62C76.5 63.3807 77.6193 64.5 79 64.5H221C222.381 64.5 223.5 63.3807 223.5 62V30C223.5 28.6193 222.381 27.5 221 27.5Z" fill="#7DE77B" stroke="black" stroke-width="3"/>
<path d="M116.678 49.8735C116.338 50.0103 116.008 50.1118 115.688 50.1782C115.372 50.2446 115.041 50.2778 114.698 50.2778C114.147 50.2778 113.659 50.1978 113.233 50.0376C112.811 49.8735 112.454 49.6313 112.161 49.311C111.872 48.9907 111.651 48.5942 111.498 48.1216C111.35 47.645 111.276 47.0923 111.276 46.4634C111.276 45.8188 111.358 45.2466 111.522 44.7466C111.686 44.2427 111.92 43.8188 112.225 43.4751C112.53 43.1274 112.899 42.8638 113.332 42.6841C113.77 42.5005 114.26 42.4087 114.803 42.4087C114.979 42.4087 115.143 42.4126 115.295 42.4204C115.452 42.4282 115.604 42.4438 115.752 42.4673C115.901 42.4868 116.051 42.5142 116.204 42.5493C116.356 42.5845 116.514 42.6294 116.678 42.6841V44.1138C116.346 43.9575 116.03 43.8462 115.729 43.7798C115.428 43.7134 115.155 43.6802 114.909 43.6802C114.545 43.6802 114.235 43.7466 113.977 43.8794C113.719 44.0083 113.506 44.1919 113.338 44.4302C113.174 44.6646 113.053 44.9458 112.975 45.2739C112.897 45.5981 112.858 45.9556 112.858 46.3462C112.858 46.7603 112.897 47.1313 112.975 47.4595C113.057 47.7837 113.182 48.0591 113.35 48.2856C113.518 48.5122 113.733 48.686 113.995 48.8071C114.256 48.9243 114.567 48.9829 114.926 48.9829C115.055 48.9829 115.194 48.9712 115.342 48.9478C115.495 48.9204 115.647 48.8872 115.799 48.8481C115.955 48.8052 116.108 48.7563 116.256 48.7017C116.409 48.6431 116.549 48.5845 116.678 48.5259V49.8735ZM120.129 43.0063H118.448V41.8931H121.594V49.0591H123.311V50.1724H118.243V49.0591H120.129V43.0063ZM128.309 42.5903C128.309 42.7192 128.286 42.8403 128.239 42.9536C128.192 43.0669 128.125 43.1665 128.039 43.2524C127.957 43.3345 127.86 43.4009 127.747 43.4517C127.633 43.4985 127.51 43.522 127.377 43.522C127.245 43.522 127.12 43.4985 127.002 43.4517C126.889 43.4009 126.789 43.3345 126.704 43.2524C126.622 43.1665 126.557 43.0669 126.51 42.9536C126.463 42.8403 126.44 42.7192 126.44 42.5903C126.44 42.4614 126.463 42.3403 126.51 42.2271C126.557 42.1138 126.622 42.0142 126.704 41.9282C126.789 41.8423 126.889 41.7759 127.002 41.729C127.12 41.6782 127.245 41.6528 127.377 41.6528C127.51 41.6528 127.633 41.6782 127.747 41.729C127.86 41.7759 127.957 41.8423 128.039 41.9282C128.125 42.0142 128.192 42.1138 128.239 42.2271C128.286 42.3403 128.309 42.4614 128.309 42.5903ZM126.727 45.3325H125.045V44.2192H128.192V49.0591H129.909V50.1724H124.84V49.0591H126.727V45.3325ZM136.588 46.7388C136.588 46.8364 136.584 46.9634 136.577 47.1196C136.573 47.2759 136.565 47.4224 136.553 47.5591H132.639C132.639 47.8208 132.678 48.0513 132.756 48.2505C132.838 48.4497 132.952 48.6177 133.096 48.7544C133.245 48.8872 133.42 48.9888 133.623 49.0591C133.83 49.1294 134.059 49.1646 134.309 49.1646C134.598 49.1646 134.907 49.1431 135.235 49.1001C135.567 49.0532 135.911 48.979 136.266 48.8774V50.0142C136.114 50.0571 135.948 50.0962 135.768 50.1313C135.588 50.1665 135.405 50.1978 135.217 50.2251C135.03 50.2524 134.84 50.272 134.649 50.2837C134.457 50.2993 134.272 50.3071 134.092 50.3071C133.639 50.3071 133.233 50.2427 132.873 50.1138C132.514 49.9849 132.209 49.7954 131.959 49.5454C131.709 49.2915 131.518 48.979 131.385 48.6079C131.252 48.2368 131.186 47.8071 131.186 47.3188C131.186 46.8345 131.252 46.395 131.385 46.0005C131.518 45.6021 131.705 45.2622 131.948 44.981C132.19 44.6958 132.483 44.4771 132.827 44.3247C133.174 44.1685 133.561 44.0903 133.987 44.0903C134.409 44.0903 134.782 44.1567 135.106 44.2896C135.43 44.4185 135.702 44.6001 135.92 44.8345C136.139 45.0688 136.305 45.3481 136.418 45.6724C136.532 45.9966 136.588 46.3521 136.588 46.7388ZM135.135 46.5337C135.139 46.2993 135.11 46.0962 135.047 45.9243C134.985 45.7485 134.899 45.604 134.789 45.4907C134.684 45.3774 134.559 45.2935 134.414 45.2388C134.274 45.1841 134.122 45.1567 133.957 45.1567C133.598 45.1567 133.303 45.2778 133.073 45.52C132.842 45.7583 132.705 46.0962 132.663 46.5337H135.135ZM141.551 50.1724V46.2935C141.551 45.6411 141.309 45.3149 140.825 45.3149C140.582 45.3149 140.35 45.4126 140.127 45.6079C139.909 45.8032 139.676 46.0688 139.43 46.4048V50.1724H138V44.2192H139.237L139.272 45.0981C139.393 44.9458 139.518 44.8071 139.647 44.6821C139.78 44.5571 139.922 44.4517 140.075 44.3657C140.227 44.2759 140.391 44.2075 140.567 44.1606C140.743 44.1138 140.94 44.0903 141.159 44.0903C141.463 44.0903 141.729 44.1411 141.955 44.2427C142.182 44.3403 142.372 44.481 142.524 44.6646C142.676 44.8442 142.789 45.063 142.864 45.3208C142.942 45.5747 142.981 45.8599 142.981 46.1763V50.1724H141.551ZM149.508 50.1138C149.25 50.1724 148.991 50.2192 148.729 50.2544C148.467 50.2896 148.219 50.3071 147.985 50.3071C147.594 50.3071 147.256 50.2661 146.971 50.1841C146.69 50.1021 146.455 49.9771 146.268 49.8091C146.084 49.6411 145.948 49.4282 145.858 49.1704C145.772 48.9087 145.729 48.5981 145.729 48.2388V45.3325H144.129V44.2192H145.729V42.6958L147.194 42.3149V44.2192H149.508V45.3325H147.194V48.1333C147.194 48.4731 147.272 48.731 147.428 48.9067C147.584 49.0786 147.846 49.1646 148.213 49.1646C148.448 49.1646 148.676 49.145 148.899 49.106C149.122 49.0669 149.325 49.022 149.508 48.9712V50.1138ZM161.42 52.6333C160.471 51.8286 159.758 50.9653 159.282 50.0435C158.809 49.1216 158.573 48.1294 158.573 47.0669C158.573 46.4731 158.643 45.9126 158.784 45.3853C158.924 44.854 159.122 44.356 159.375 43.8911C159.633 43.4263 159.938 42.9907 160.289 42.5845C160.645 42.1743 161.034 41.7915 161.455 41.436L162.27 42.2505C161.508 42.9341 160.936 43.6724 160.553 44.4653C160.17 45.2583 159.979 46.0923 159.979 46.9673C159.979 47.854 160.17 48.7075 160.553 49.5278C160.936 50.3442 161.508 51.0903 162.27 51.7661L161.42 52.6333ZM169.278 50.1724H167.69L167.057 48.2856L166.864 47.6294L166.67 48.3032L166.061 50.1724H164.467L163.623 44.2192H164.983L165.411 47.5825L165.51 48.5024L165.75 47.6763L166.348 45.8657H167.438L168.077 47.6646L168.352 48.5142L168.463 47.5708L168.821 44.2192H170.116L169.278 50.1724ZM176.174 46.7388C176.174 46.8364 176.17 46.9634 176.163 47.1196C176.159 47.2759 176.151 47.4224 176.139 47.5591H172.225C172.225 47.8208 172.264 48.0513 172.342 48.2505C172.424 48.4497 172.538 48.6177 172.682 48.7544C172.83 48.8872 173.006 48.9888 173.209 49.0591C173.416 49.1294 173.645 49.1646 173.895 49.1646C174.184 49.1646 174.493 49.1431 174.821 49.1001C175.153 49.0532 175.497 48.979 175.852 48.8774V50.0142C175.7 50.0571 175.534 50.0962 175.354 50.1313C175.174 50.1665 174.991 50.1978 174.803 50.2251C174.616 50.2524 174.426 50.272 174.235 50.2837C174.043 50.2993 173.858 50.3071 173.678 50.3071C173.225 50.3071 172.819 50.2427 172.459 50.1138C172.1 49.9849 171.795 49.7954 171.545 49.5454C171.295 49.2915 171.104 48.979 170.971 48.6079C170.838 48.2368 170.772 47.8071 170.772 47.3188C170.772 46.8345 170.838 46.395 170.971 46.0005C171.104 45.6021 171.291 45.2622 171.534 44.981C171.776 44.6958 172.069 44.4771 172.413 44.3247C172.76 44.1685 173.147 44.0903 173.573 44.0903C173.995 44.0903 174.368 44.1567 174.692 44.2896C175.016 44.4185 175.288 44.6001 175.506 44.8345C175.725 45.0688 175.891 45.3481 176.004 45.6724C176.118 45.9966 176.174 46.3521 176.174 46.7388ZM174.721 46.5337C174.725 46.2993 174.696 46.0962 174.633 45.9243C174.571 45.7485 174.485 45.604 174.375 45.4907C174.27 45.3774 174.145 45.2935 174 45.2388C173.86 45.1841 173.707 45.1567 173.543 45.1567C173.184 45.1567 172.889 45.2778 172.659 45.52C172.428 45.7583 172.291 46.0962 172.248 46.5337H174.721ZM182.942 47.0903C182.942 47.6372 182.864 48.1099 182.707 48.5083C182.555 48.9067 182.34 49.2388 182.063 49.5044C181.789 49.7661 181.465 49.9614 181.09 50.0903C180.715 50.2153 180.307 50.2778 179.866 50.2778C179.432 50.2778 179.028 50.2446 178.653 50.1782C178.282 50.1157 177.926 50.0298 177.586 49.9204V41.8931H179.016V43.8384L178.957 45.0103C179.172 44.7329 179.422 44.5103 179.707 44.3423C179.997 44.1743 180.342 44.0903 180.745 44.0903C181.096 44.0903 181.409 44.1606 181.682 44.3013C181.955 44.4419 182.184 44.6431 182.368 44.9048C182.555 45.1626 182.698 45.4771 182.795 45.8481C182.893 46.2153 182.942 46.6294 182.942 47.0903ZM181.442 47.1489C181.442 46.8208 181.418 46.5415 181.372 46.311C181.325 46.0806 181.256 45.8911 181.166 45.7427C181.08 45.5942 180.973 45.4868 180.844 45.4204C180.719 45.3501 180.575 45.3149 180.411 45.3149C180.168 45.3149 179.936 45.4126 179.713 45.6079C179.495 45.8032 179.262 46.0688 179.016 46.4048V49.0063C179.129 49.0493 179.268 49.0845 179.432 49.1118C179.6 49.1392 179.77 49.1528 179.942 49.1528C180.168 49.1528 180.373 49.106 180.557 49.0122C180.745 48.9185 180.903 48.7856 181.032 48.6138C181.164 48.4419 181.266 48.2329 181.336 47.9868C181.407 47.7368 181.442 47.4575 181.442 47.1489ZM185.555 41.436C186.512 42.2329 187.225 43.0942 187.694 44.02C188.163 44.9419 188.397 45.936 188.397 47.0024C188.397 47.5962 188.327 48.1567 188.186 48.6841C188.045 49.2114 187.848 49.7095 187.594 50.1782C187.344 50.647 187.043 51.0845 186.692 51.4907C186.34 51.9009 185.954 52.2817 185.532 52.6333L184.711 51.8188C185.477 51.1353 186.051 50.395 186.434 49.5981C186.817 48.8013 187.008 47.9653 187.008 47.0903C187.008 46.2075 186.817 45.356 186.434 44.5356C186.051 43.7153 185.477 42.9653 184.711 42.2856L185.555 41.436Z" fill="black"/>
<path d="M370.824 78.2535C371.516 77.7985 371.709 76.8685 371.254 76.1761L363.84 64.8941C363.385 64.2018 362.455 64.0094 361.762 64.4643C361.07 64.9193 360.878 65.8493 361.333 66.5416L367.923 76.5701L357.894 83.1602C357.202 83.6152 357.009 84.5452 357.464 85.2376C357.919 85.9299 358.849 86.1223 359.542 85.6674L370.824 78.2535ZM224.696 48.4688L369.696 78.4688L370.304 75.531L225.304 45.531L224.696 48.4688Z" fill="black"/>
<path d="M221 86.5H79C77.6193 86.5 76.5 87.6193 76.5 89V121C76.5 122.381 77.6193 123.5 79 123.5H221C222.381 123.5 223.5 122.381 223.5 121V89C223.5 87.6193 222.381 86.5 221 86.5Z" fill="#7DE77B" stroke="black" stroke-width="3"/>
<path d="M104.9 108.701C104.561 108.838 104.23 108.939 103.91 109.006C103.594 109.072 103.264 109.105 102.92 109.105C102.369 109.105 101.881 109.025 101.455 108.865C101.033 108.701 100.676 108.459 100.383 108.139C100.094 107.818 99.873 107.422 99.7207 106.949C99.5723 106.473 99.498 105.92 99.498 105.291C99.498 104.646 99.5801 104.074 99.7441 103.574C99.9082 103.07 100.143 102.646 100.447 102.303C100.752 101.955 101.121 101.691 101.555 101.512C101.992 101.328 102.482 101.236 103.025 101.236C103.201 101.236 103.365 101.24 103.518 101.248C103.674 101.256 103.826 101.271 103.975 101.295C104.123 101.314 104.273 101.342 104.426 101.377C104.578 101.412 104.736 101.457 104.9 101.512V102.941C104.568 102.785 104.252 102.674 103.951 102.607C103.65 102.541 103.377 102.508 103.131 102.508C102.768 102.508 102.457 102.574 102.199 102.707C101.941 102.836 101.729 103.02 101.561 103.258C101.397 103.492 101.275 103.773 101.197 104.102C101.119 104.426 101.08 104.783 101.08 105.174C101.08 105.588 101.119 105.959 101.197 106.287C101.279 106.611 101.404 106.887 101.572 107.113C101.74 107.34 101.955 107.514 102.217 107.635C102.479 107.752 102.789 107.811 103.148 107.811C103.277 107.811 103.416 107.799 103.565 107.775C103.717 107.748 103.869 107.715 104.021 107.676C104.178 107.633 104.33 107.584 104.479 107.529C104.631 107.471 104.771 107.412 104.9 107.354V108.701ZM108.352 101.834H106.67V100.721H109.816V107.887H111.533V109H106.465V107.887H108.352V101.834ZM116.531 101.418C116.531 101.547 116.508 101.668 116.461 101.781C116.414 101.895 116.348 101.994 116.262 102.08C116.18 102.162 116.082 102.229 115.969 102.279C115.855 102.326 115.732 102.35 115.6 102.35C115.467 102.35 115.342 102.326 115.225 102.279C115.111 102.229 115.012 102.162 114.926 102.08C114.844 101.994 114.779 101.895 114.732 101.781C114.686 101.668 114.662 101.547 114.662 101.418C114.662 101.289 114.686 101.168 114.732 101.055C114.779 100.941 114.844 100.842 114.926 100.756C115.012 100.67 115.111 100.604 115.225 100.557C115.342 100.506 115.467 100.48 115.6 100.48C115.732 100.48 115.855 100.506 115.969 100.557C116.082 100.604 116.18 100.67 116.262 100.756C116.348 100.842 116.414 100.941 116.461 101.055C116.508 101.168 116.531 101.289 116.531 101.418ZM114.949 104.16H113.268V103.047H116.414V107.887H118.131V109H113.062V107.887H114.949V104.16ZM124.811 105.566C124.811 105.664 124.807 105.791 124.799 105.947C124.795 106.104 124.787 106.25 124.775 106.387H120.861C120.861 106.648 120.9 106.879 120.979 107.078C121.061 107.277 121.174 107.445 121.318 107.582C121.467 107.715 121.643 107.816 121.846 107.887C122.053 107.957 122.281 107.992 122.531 107.992C122.82 107.992 123.129 107.971 123.457 107.928C123.789 107.881 124.133 107.807 124.488 107.705V108.842C124.336 108.885 124.17 108.924 123.99 108.959C123.811 108.994 123.627 109.025 123.439 109.053C123.252 109.08 123.062 109.1 122.871 109.111C122.68 109.127 122.494 109.135 122.314 109.135C121.861 109.135 121.455 109.07 121.096 108.941C120.736 108.812 120.432 108.623 120.182 108.373C119.932 108.119 119.74 107.807 119.607 107.436C119.475 107.064 119.408 106.635 119.408 106.146C119.408 105.662 119.475 105.223 119.607 104.828C119.74 104.43 119.928 104.09 120.17 103.809C120.412 103.523 120.705 103.305 121.049 103.152C121.396 102.996 121.783 102.918 122.209 102.918C122.631 102.918 123.004 102.984 123.328 103.117C123.652 103.246 123.924 103.428 124.143 103.662C124.361 103.896 124.527 104.176 124.641 104.5C124.754 104.824 124.811 105.18 124.811 105.566ZM123.357 105.361C123.361 105.127 123.332 104.924 123.27 104.752C123.207 104.576 123.121 104.432 123.012 104.318C122.906 104.205 122.781 104.121 122.637 104.066C122.496 104.012 122.344 103.984 122.18 103.984C121.82 103.984 121.525 104.105 121.295 104.348C121.064 104.586 120.928 104.924 120.885 105.361H123.357ZM129.773 109V105.121C129.773 104.469 129.531 104.143 129.047 104.143C128.805 104.143 128.572 104.24 128.35 104.436C128.131 104.631 127.898 104.896 127.652 105.232V109H126.223V103.047H127.459L127.494 103.926C127.615 103.773 127.74 103.635 127.869 103.51C128.002 103.385 128.145 103.279 128.297 103.193C128.449 103.104 128.613 103.035 128.789 102.988C128.965 102.941 129.162 102.918 129.381 102.918C129.686 102.918 129.951 102.969 130.178 103.07C130.404 103.168 130.594 103.309 130.746 103.492C130.898 103.672 131.012 103.891 131.086 104.148C131.164 104.402 131.203 104.688 131.203 105.004V109H129.773ZM137.73 108.941C137.473 109 137.213 109.047 136.951 109.082C136.689 109.117 136.441 109.135 136.207 109.135C135.816 109.135 135.479 109.094 135.193 109.012C134.912 108.93 134.678 108.805 134.49 108.637C134.307 108.469 134.17 108.256 134.08 107.998C133.994 107.736 133.951 107.426 133.951 107.066V104.16H132.352V103.047H133.951V101.523L135.416 101.143V103.047H137.73V104.16H135.416V106.961C135.416 107.301 135.494 107.559 135.65 107.734C135.807 107.906 136.068 107.992 136.436 107.992C136.67 107.992 136.898 107.973 137.121 107.934C137.344 107.895 137.547 107.85 137.73 107.799V108.941ZM149.643 111.461C148.693 110.656 147.98 109.793 147.504 108.871C147.031 107.949 146.795 106.957 146.795 105.895C146.795 105.301 146.865 104.74 147.006 104.213C147.146 103.682 147.344 103.184 147.598 102.719C147.855 102.254 148.16 101.818 148.512 101.412C148.867 101.002 149.256 100.619 149.678 100.264L150.492 101.078C149.73 101.762 149.158 102.5 148.775 103.293C148.393 104.086 148.201 104.92 148.201 105.795C148.201 106.682 148.393 107.535 148.775 108.355C149.158 109.172 149.73 109.918 150.492 110.594L149.643 111.461ZM156.814 109V104.945C156.814 104.797 156.811 104.668 156.803 104.559C156.795 104.445 156.779 104.352 156.756 104.277C156.732 104.203 156.697 104.148 156.65 104.113C156.607 104.074 156.547 104.055 156.469 104.055C156.348 104.055 156.229 104.137 156.111 104.301C155.994 104.465 155.861 104.744 155.713 105.139V109H154.488V104.945C154.488 104.797 154.484 104.668 154.477 104.559C154.469 104.445 154.453 104.352 154.43 104.277C154.406 104.203 154.371 104.148 154.324 104.113C154.277 104.074 154.215 104.055 154.137 104.055C154.035 104.055 153.922 104.137 153.797 104.301C153.672 104.465 153.533 104.744 153.381 105.139V109H152.145V103.047H153.205L153.229 103.914C153.314 103.738 153.4 103.588 153.486 103.463C153.572 103.338 153.664 103.236 153.762 103.158C153.859 103.076 153.963 103.018 154.072 102.982C154.186 102.947 154.312 102.93 154.453 102.93C154.785 102.93 155.037 103.018 155.209 103.193C155.385 103.365 155.484 103.605 155.508 103.914C155.602 103.738 155.693 103.588 155.783 103.463C155.877 103.338 155.973 103.236 156.07 103.158C156.172 103.076 156.279 103.018 156.393 102.982C156.51 102.947 156.639 102.93 156.779 102.93C157.213 102.93 157.533 103.082 157.74 103.387C157.947 103.688 158.051 104.135 158.051 104.729V109H156.814ZM164.572 105.977C164.572 106.445 164.506 106.875 164.373 107.266C164.24 107.652 164.049 107.984 163.799 108.262C163.549 108.539 163.242 108.754 162.879 108.906C162.516 109.059 162.102 109.135 161.637 109.135C161.195 109.135 160.801 109.07 160.453 108.941C160.105 108.812 159.811 108.621 159.568 108.367C159.326 108.109 159.141 107.789 159.012 107.406C158.883 107.02 158.818 106.57 158.818 106.059C158.818 105.586 158.885 105.156 159.018 104.77C159.154 104.383 159.348 104.053 159.598 103.779C159.852 103.506 160.16 103.295 160.523 103.146C160.887 102.994 161.297 102.918 161.754 102.918C162.199 102.918 162.596 102.984 162.943 103.117C163.291 103.246 163.586 103.439 163.828 103.697C164.07 103.955 164.254 104.275 164.379 104.658C164.508 105.037 164.572 105.477 164.572 105.977ZM163.084 106.012C163.084 105.395 162.967 104.932 162.732 104.623C162.502 104.311 162.16 104.154 161.707 104.154C161.457 104.154 161.244 104.203 161.068 104.301C160.893 104.398 160.748 104.533 160.635 104.705C160.521 104.873 160.438 105.07 160.383 105.297C160.332 105.523 160.307 105.766 160.307 106.023C160.307 106.645 160.432 107.113 160.682 107.43C160.932 107.742 161.273 107.898 161.707 107.898C161.945 107.898 162.152 107.852 162.328 107.758C162.504 107.66 162.646 107.527 162.756 107.359C162.865 107.188 162.947 106.986 163.002 106.756C163.057 106.525 163.084 106.277 163.084 106.012ZM171.164 105.918C171.164 106.465 171.086 106.938 170.93 107.336C170.777 107.734 170.562 108.066 170.285 108.332C170.012 108.594 169.688 108.789 169.312 108.918C168.938 109.043 168.529 109.105 168.088 109.105C167.654 109.105 167.25 109.072 166.875 109.006C166.504 108.943 166.148 108.857 165.809 108.748V100.721H167.238V102.666L167.18 103.838C167.395 103.561 167.645 103.338 167.93 103.17C168.219 103.002 168.564 102.918 168.967 102.918C169.318 102.918 169.631 102.988 169.904 103.129C170.178 103.27 170.406 103.471 170.59 103.732C170.777 103.99 170.92 104.305 171.018 104.676C171.115 105.043 171.164 105.457 171.164 105.918ZM169.664 105.977C169.664 105.648 169.641 105.369 169.594 105.139C169.547 104.908 169.479 104.719 169.389 104.57C169.303 104.422 169.195 104.314 169.066 104.248C168.941 104.178 168.797 104.143 168.633 104.143C168.391 104.143 168.158 104.24 167.936 104.436C167.717 104.631 167.484 104.896 167.238 105.232V107.834C167.352 107.877 167.49 107.912 167.654 107.939C167.822 107.967 167.992 107.98 168.164 107.98C168.391 107.98 168.596 107.934 168.779 107.84C168.967 107.746 169.125 107.613 169.254 107.441C169.387 107.27 169.488 107.061 169.559 106.814C169.629 106.564 169.664 106.285 169.664 105.977ZM175.91 101.418C175.91 101.547 175.887 101.668 175.84 101.781C175.793 101.895 175.727 101.994 175.641 102.08C175.559 102.162 175.461 102.229 175.348 102.279C175.234 102.326 175.111 102.35 174.979 102.35C174.846 102.35 174.721 102.326 174.604 102.279C174.49 102.229 174.391 102.162 174.305 102.08C174.223 101.994 174.158 101.895 174.111 101.781C174.064 101.668 174.041 101.547 174.041 101.418C174.041 101.289 174.064 101.168 174.111 101.055C174.158 100.941 174.223 100.842 174.305 100.756C174.391 100.67 174.49 100.604 174.604 100.557C174.721 100.506 174.846 100.48 174.979 100.48C175.111 100.48 175.234 100.506 175.348 100.557C175.461 100.604 175.559 100.67 175.641 100.756C175.727 100.842 175.793 100.941 175.84 101.055C175.887 101.168 175.91 101.289 175.91 101.418ZM174.328 104.16H172.646V103.047H175.793V107.887H177.51V109H172.441V107.887H174.328V104.16ZM180.926 101.834H179.244V100.721H182.391V107.887H184.107V109H179.039V107.887H180.926V101.834ZM190.787 105.566C190.787 105.664 190.783 105.791 190.775 105.947C190.771 106.104 190.764 106.25 190.752 106.387H186.838C186.838 106.648 186.877 106.879 186.955 107.078C187.037 107.277 187.15 107.445 187.295 107.582C187.443 107.715 187.619 107.816 187.822 107.887C188.029 107.957 188.258 107.992 188.508 107.992C188.797 107.992 189.105 107.971 189.434 107.928C189.766 107.881 190.109 107.807 190.465 107.705V108.842C190.312 108.885 190.146 108.924 189.967 108.959C189.787 108.994 189.604 109.025 189.416 109.053C189.229 109.08 189.039 109.1 188.848 109.111C188.656 109.127 188.471 109.135 188.291 109.135C187.838 109.135 187.432 109.07 187.072 108.941C186.713 108.812 186.408 108.623 186.158 108.373C185.908 108.119 185.717 107.807 185.584 107.436C185.451 107.064 185.385 106.635 185.385 106.146C185.385 105.662 185.451 105.223 185.584 104.828C185.717 104.43 185.904 104.09 186.146 103.809C186.389 103.523 186.682 103.305 187.025 103.152C187.373 102.996 187.76 102.918 188.186 102.918C188.607 102.918 188.98 102.984 189.305 103.117C189.629 103.246 189.9 103.428 190.119 103.662C190.338 103.896 190.504 104.176 190.617 104.5C190.73 104.824 190.787 105.18 190.787 105.566ZM189.334 105.361C189.338 105.127 189.309 104.924 189.246 104.752C189.184 104.576 189.098 104.432 188.988 104.318C188.883 104.205 188.758 104.121 188.613 104.066C188.473 104.012 188.32 103.984 188.156 103.984C187.797 103.984 187.502 104.105 187.271 104.348C187.041 104.586 186.904 104.924 186.861 105.361H189.334ZM193.57 100.264C194.527 101.061 195.24 101.922 195.709 102.848C196.178 103.77 196.412 104.764 196.412 105.83C196.412 106.424 196.342 106.984 196.201 107.512C196.061 108.039 195.863 108.537 195.609 109.006C195.359 109.475 195.059 109.912 194.707 110.318C194.355 110.729 193.969 111.109 193.547 111.461L192.727 110.646C193.492 109.963 194.066 109.223 194.449 108.426C194.832 107.629 195.023 106.793 195.023 105.918C195.023 105.035 194.832 104.184 194.449 103.363C194.066 102.543 193.492 101.793 192.727 101.113L193.57 100.264Z" fill="black"/>
<path d="M373.082 104.039C373.656 103.441 373.636 102.492 373.039 101.918L363.3 92.5688C362.702 91.9951 361.753 92.0145 361.179 92.6121C360.605 93.2097 360.625 94.1593 361.222 94.733L369.879 103.043L361.569 111.7C360.995 112.298 361.014 113.247 361.612 113.821C362.21 114.395 363.159 114.375 363.733 113.778L373.082 104.039ZM225.031 107.5L372.031 104.5L371.969 101.5L224.969 104.5L225.031 107.5Z" fill="black"/>
<path d="M221 145.5H79C77.6193 145.5 76.5 146.619 76.5 148V180C76.5 181.381 77.6193 182.5 79 182.5H221C222.381 182.5 223.5 181.381 223.5 180V148C223.5 146.619 222.381 145.5 221 145.5Z" fill="#7DE77B" stroke="black" stroke-width="3"/>
<path d="M102.602 167.701C102.262 167.838 101.932 167.939 101.611 168.006C101.295 168.072 100.965 168.105 100.621 168.105C100.07 168.105 99.582 168.025 99.1562 167.865C98.7344 167.701 98.377 167.459 98.084 167.139C97.7949 166.818 97.5742 166.422 97.4219 165.949C97.2734 165.473 97.1992 164.92 97.1992 164.291C97.1992 163.646 97.2812 163.074 97.4453 162.574C97.6094 162.07 97.8438 161.646 98.1484 161.303C98.4531 160.955 98.8223 160.691 99.2559 160.512C99.6934 160.328 100.184 160.236 100.727 160.236C100.902 160.236 101.066 160.24 101.219 160.248C101.375 160.256 101.527 160.271 101.676 160.295C101.824 160.314 101.975 160.342 102.127 160.377C102.279 160.412 102.438 160.457 102.602 160.512V161.941C102.27 161.785 101.953 161.674 101.652 161.607C101.352 161.541 101.078 161.508 100.832 161.508C100.469 161.508 100.158 161.574 99.9004 161.707C99.6426 161.836 99.4297 162.02 99.2617 162.258C99.0977 162.492 98.9766 162.773 98.8984 163.102C98.8203 163.426 98.7812 163.783 98.7812 164.174C98.7812 164.588 98.8203 164.959 98.8984 165.287C98.9805 165.611 99.1055 165.887 99.2734 166.113C99.4414 166.34 99.6562 166.514 99.918 166.635C100.18 166.752 100.49 166.811 100.85 166.811C100.979 166.811 101.117 166.799 101.266 166.775C101.418 166.748 101.57 166.715 101.723 166.676C101.879 166.633 102.031 166.584 102.18 166.529C102.332 166.471 102.473 166.412 102.602 166.354V167.701ZM106.053 160.834H104.371V159.721H107.518V166.887H109.234V168H104.166V166.887H106.053V160.834ZM114.232 160.418C114.232 160.547 114.209 160.668 114.162 160.781C114.115 160.895 114.049 160.994 113.963 161.08C113.881 161.162 113.783 161.229 113.67 161.279C113.557 161.326 113.434 161.35 113.301 161.35C113.168 161.35 113.043 161.326 112.926 161.279C112.812 161.229 112.713 161.162 112.627 161.08C112.545 160.994 112.48 160.895 112.434 160.781C112.387 160.668 112.363 160.547 112.363 160.418C112.363 160.289 112.387 160.168 112.434 160.055C112.48 159.941 112.545 159.842 112.627 159.756C112.713 159.67 112.812 159.604 112.926 159.557C113.043 159.506 113.168 159.48 113.301 159.48C113.434 159.48 113.557 159.506 113.67 159.557C113.783 159.604 113.881 159.67 113.963 159.756C114.049 159.842 114.115 159.941 114.162 160.055C114.209 160.168 114.232 160.289 114.232 160.418ZM112.65 163.16H110.969V162.047H114.115V166.887H115.832V168H110.764V166.887H112.65V163.16ZM122.512 164.566C122.512 164.664 122.508 164.791 122.5 164.947C122.496 165.104 122.488 165.25 122.477 165.387H118.562C118.562 165.648 118.602 165.879 118.68 166.078C118.762 166.277 118.875 166.445 119.02 166.582C119.168 166.715 119.344 166.816 119.547 166.887C119.754 166.957 119.982 166.992 120.232 166.992C120.521 166.992 120.83 166.971 121.158 166.928C121.49 166.881 121.834 166.807 122.189 166.705V167.842C122.037 167.885 121.871 167.924 121.691 167.959C121.512 167.994 121.328 168.025 121.141 168.053C120.953 168.08 120.764 168.1 120.572 168.111C120.381 168.127 120.195 168.135 120.016 168.135C119.562 168.135 119.156 168.07 118.797 167.941C118.438 167.812 118.133 167.623 117.883 167.373C117.633 167.119 117.441 166.807 117.309 166.436C117.176 166.064 117.109 165.635 117.109 165.146C117.109 164.662 117.176 164.223 117.309 163.828C117.441 163.43 117.629 163.09 117.871 162.809C118.113 162.523 118.406 162.305 118.75 162.152C119.098 161.996 119.484 161.918 119.91 161.918C120.332 161.918 120.705 161.984 121.029 162.117C121.354 162.246 121.625 162.428 121.844 162.662C122.062 162.896 122.229 163.176 122.342 163.5C122.455 163.824 122.512 164.18 122.512 164.566ZM121.059 164.361C121.062 164.127 121.033 163.924 120.971 163.752C120.908 163.576 120.822 163.432 120.713 163.318C120.607 163.205 120.482 163.121 120.338 163.066C120.197 163.012 120.045 162.984 119.881 162.984C119.521 162.984 119.227 163.105 118.996 163.348C118.766 163.586 118.629 163.924 118.586 164.361H121.059ZM127.475 168V164.121C127.475 163.469 127.232 163.143 126.748 163.143C126.506 163.143 126.273 163.24 126.051 163.436C125.832 163.631 125.6 163.896 125.354 164.232V168H123.924V162.047H125.16L125.195 162.926C125.316 162.773 125.441 162.635 125.57 162.51C125.703 162.385 125.846 162.279 125.998 162.193C126.15 162.104 126.314 162.035 126.49 161.988C126.666 161.941 126.863 161.918 127.082 161.918C127.387 161.918 127.652 161.969 127.879 162.07C128.105 162.168 128.295 162.309 128.447 162.492C128.6 162.672 128.713 162.891 128.787 163.148C128.865 163.402 128.904 163.688 128.904 164.004V168H127.475ZM135.432 167.941C135.174 168 134.914 168.047 134.652 168.082C134.391 168.117 134.143 168.135 133.908 168.135C133.518 168.135 133.18 168.094 132.895 168.012C132.613 167.93 132.379 167.805 132.191 167.637C132.008 167.469 131.871 167.256 131.781 166.998C131.695 166.736 131.652 166.426 131.652 166.066V163.16H130.053V162.047H131.652V160.523L133.117 160.143V162.047H135.432V163.16H133.117V165.961C133.117 166.301 133.195 166.559 133.352 166.734C133.508 166.906 133.77 166.992 134.137 166.992C134.371 166.992 134.6 166.973 134.822 166.934C135.045 166.895 135.248 166.85 135.432 166.799V167.941ZM147.344 170.461C146.395 169.656 145.682 168.793 145.205 167.871C144.732 166.949 144.496 165.957 144.496 164.895C144.496 164.301 144.566 163.74 144.707 163.213C144.848 162.682 145.045 162.184 145.299 161.719C145.557 161.254 145.861 160.818 146.213 160.412C146.568 160.002 146.957 159.619 147.379 159.264L148.193 160.078C147.432 160.762 146.859 161.5 146.477 162.293C146.094 163.086 145.902 163.92 145.902 164.795C145.902 165.682 146.094 166.535 146.477 167.355C146.859 168.172 147.432 168.918 148.193 169.594L147.344 170.461ZM154.059 168L154.023 167.121C153.898 167.273 153.77 167.412 153.637 167.537C153.504 167.662 153.361 167.77 153.209 167.859C153.057 167.945 152.893 168.012 152.717 168.059C152.545 168.109 152.354 168.135 152.143 168.135C151.791 168.135 151.479 168.064 151.205 167.924C150.932 167.783 150.701 167.584 150.514 167.326C150.33 167.064 150.189 166.748 150.092 166.377C149.994 166.006 149.945 165.592 149.945 165.135C149.945 164.588 150.021 164.115 150.174 163.717C150.33 163.314 150.545 162.982 150.818 162.721C151.092 162.455 151.416 162.26 151.791 162.135C152.166 162.006 152.574 161.941 153.016 161.941C153.164 161.941 153.312 161.951 153.461 161.971C153.613 161.99 153.748 162.016 153.865 162.047V159.721H155.295V168H154.059ZM151.445 165.07C151.445 165.398 151.467 165.68 151.51 165.914C151.557 166.145 151.623 166.334 151.709 166.482C151.799 166.631 151.908 166.74 152.037 166.811C152.166 166.877 152.312 166.91 152.477 166.91C152.719 166.91 152.949 166.812 153.168 166.617C153.387 166.422 153.619 166.154 153.865 165.814V163.213C153.752 163.17 153.611 163.135 153.443 163.107C153.279 163.08 153.113 163.066 152.945 163.066C152.715 163.066 152.508 163.113 152.324 163.207C152.141 163.301 151.982 163.434 151.85 163.605C151.721 163.777 151.621 163.988 151.551 164.238C151.48 164.484 151.445 164.762 151.445 165.07ZM162.098 164.566C162.098 164.664 162.094 164.791 162.086 164.947C162.082 165.104 162.074 165.25 162.062 165.387H158.148C158.148 165.648 158.188 165.879 158.266 166.078C158.348 166.277 158.461 166.445 158.605 166.582C158.754 166.715 158.93 166.816 159.133 166.887C159.34 166.957 159.568 166.992 159.818 166.992C160.107 166.992 160.416 166.971 160.744 166.928C161.076 166.881 161.42 166.807 161.775 166.705V167.842C161.623 167.885 161.457 167.924 161.277 167.959C161.098 167.994 160.914 168.025 160.727 168.053C160.539 168.08 160.35 168.1 160.158 168.111C159.967 168.127 159.781 168.135 159.602 168.135C159.148 168.135 158.742 168.07 158.383 167.941C158.023 167.812 157.719 167.623 157.469 167.373C157.219 167.119 157.027 166.807 156.895 166.436C156.762 166.064 156.695 165.635 156.695 165.146C156.695 164.662 156.762 164.223 156.895 163.828C157.027 163.43 157.215 163.09 157.457 162.809C157.699 162.523 157.992 162.305 158.336 162.152C158.684 161.996 159.07 161.918 159.496 161.918C159.918 161.918 160.291 161.984 160.615 162.117C160.939 162.246 161.211 162.428 161.43 162.662C161.648 162.896 161.814 163.176 161.928 163.5C162.041 163.824 162.098 164.18 162.098 164.566ZM160.645 164.361C160.648 164.127 160.619 163.924 160.557 163.752C160.494 163.576 160.408 163.432 160.299 163.318C160.193 163.205 160.068 163.121 159.924 163.066C159.783 163.012 159.631 162.984 159.467 162.984C159.107 162.984 158.812 163.105 158.582 163.348C158.352 163.586 158.215 163.924 158.172 164.361H160.645ZM168.42 166.248C168.42 166.588 168.344 166.879 168.191 167.121C168.043 167.359 167.844 167.555 167.594 167.707C167.348 167.855 167.066 167.963 166.75 168.029C166.438 168.1 166.117 168.135 165.789 168.135C165.352 168.135 164.957 168.113 164.605 168.07C164.254 168.031 163.922 167.973 163.609 167.895V166.605C163.977 166.758 164.342 166.869 164.705 166.939C165.072 167.006 165.418 167.039 165.742 167.039C166.117 167.039 166.396 166.98 166.58 166.863C166.768 166.742 166.861 166.586 166.861 166.395C166.861 166.305 166.842 166.223 166.803 166.148C166.764 166.074 166.689 166.004 166.58 165.938C166.475 165.867 166.324 165.797 166.129 165.727C165.934 165.652 165.678 165.57 165.361 165.48C165.068 165.398 164.811 165.307 164.588 165.205C164.369 165.1 164.188 164.977 164.043 164.836C163.898 164.695 163.789 164.533 163.715 164.35C163.645 164.162 163.609 163.943 163.609 163.693C163.609 163.451 163.664 163.223 163.773 163.008C163.883 162.793 164.045 162.605 164.26 162.445C164.479 162.281 164.75 162.152 165.074 162.059C165.398 161.965 165.777 161.918 166.211 161.918C166.586 161.918 166.918 161.938 167.207 161.977C167.496 162.016 167.752 162.059 167.975 162.105V163.271C167.635 163.162 167.314 163.086 167.014 163.043C166.717 162.996 166.422 162.973 166.129 162.973C165.836 162.973 165.6 163.025 165.42 163.131C165.244 163.236 165.156 163.383 165.156 163.57C165.156 163.66 165.174 163.74 165.209 163.811C165.244 163.881 165.312 163.949 165.414 164.016C165.52 164.082 165.664 164.152 165.848 164.227C166.035 164.297 166.281 164.375 166.586 164.461C166.93 164.559 167.219 164.664 167.453 164.777C167.688 164.887 167.875 165.012 168.016 165.152C168.16 165.293 168.264 165.453 168.326 165.633C168.389 165.812 168.42 166.018 168.42 166.248ZM173.793 168L171.596 165.023V168H170.166V159.721H171.596V164.566L173.676 162.047H175.463L173.049 164.76L175.662 168H173.793ZM181.615 167.941C181.357 168 181.098 168.047 180.836 168.082C180.574 168.117 180.326 168.135 180.092 168.135C179.701 168.135 179.363 168.094 179.078 168.012C178.797 167.93 178.562 167.805 178.375 167.637C178.191 167.469 178.055 167.256 177.965 166.998C177.879 166.736 177.836 166.426 177.836 166.066V163.16H176.236V162.047H177.836V160.523L179.301 160.143V162.047H181.615V163.16H179.301V165.961C179.301 166.301 179.379 166.559 179.535 166.734C179.691 166.906 179.953 166.992 180.32 166.992C180.555 166.992 180.783 166.973 181.006 166.934C181.229 166.895 181.432 166.85 181.615 166.799V167.941ZM188.664 164.977C188.664 165.445 188.598 165.875 188.465 166.266C188.332 166.652 188.141 166.984 187.891 167.262C187.641 167.539 187.334 167.754 186.971 167.906C186.607 168.059 186.193 168.135 185.729 168.135C185.287 168.135 184.893 168.07 184.545 167.941C184.197 167.812 183.902 167.621 183.66 167.367C183.418 167.109 183.232 166.789 183.104 166.406C182.975 166.02 182.91 165.57 182.91 165.059C182.91 164.586 182.977 164.156 183.109 163.77C183.246 163.383 183.439 163.053 183.689 162.779C183.943 162.506 184.252 162.295 184.615 162.146C184.979 161.994 185.389 161.918 185.846 161.918C186.291 161.918 186.688 161.984 187.035 162.117C187.383 162.246 187.678 162.439 187.92 162.697C188.162 162.955 188.346 163.275 188.471 163.658C188.6 164.037 188.664 164.477 188.664 164.977ZM187.176 165.012C187.176 164.395 187.059 163.932 186.824 163.623C186.594 163.311 186.252 163.154 185.799 163.154C185.549 163.154 185.336 163.203 185.16 163.301C184.984 163.398 184.84 163.533 184.727 163.705C184.613 163.873 184.529 164.07 184.475 164.297C184.424 164.523 184.398 164.766 184.398 165.023C184.398 165.645 184.523 166.113 184.773 166.43C185.023 166.742 185.365 166.898 185.799 166.898C186.037 166.898 186.244 166.852 186.42 166.758C186.596 166.66 186.738 166.527 186.848 166.359C186.957 166.188 187.039 165.986 187.094 165.756C187.148 165.525 187.176 165.277 187.176 165.012ZM195.256 164.918C195.256 165.465 195.178 165.938 195.021 166.336C194.869 166.734 194.654 167.066 194.377 167.332C194.104 167.594 193.779 167.789 193.404 167.918C193.029 168.043 192.621 168.105 192.18 168.105C192.031 168.105 191.883 168.096 191.734 168.076C191.586 168.057 191.451 168.031 191.33 168V170.326H189.9V162.047H191.137L191.172 162.926C191.293 162.773 191.418 162.635 191.547 162.51C191.68 162.385 191.822 162.279 191.975 162.193C192.127 162.104 192.291 162.035 192.467 161.988C192.643 161.941 192.84 161.918 193.059 161.918C193.41 161.918 193.723 161.988 193.996 162.129C194.27 162.27 194.498 162.471 194.682 162.732C194.869 162.99 195.012 163.305 195.109 163.676C195.207 164.043 195.256 164.457 195.256 164.918ZM193.756 164.977C193.756 164.648 193.732 164.369 193.686 164.139C193.639 163.908 193.57 163.719 193.48 163.57C193.395 163.422 193.287 163.314 193.158 163.248C193.033 163.178 192.889 163.143 192.725 163.143C192.482 163.143 192.25 163.24 192.027 163.436C191.809 163.631 191.576 163.896 191.33 164.232V166.834C191.443 166.877 191.582 166.912 191.746 166.939C191.914 166.967 192.084 166.98 192.256 166.98C192.482 166.98 192.688 166.934 192.871 166.84C193.059 166.746 193.217 166.613 193.346 166.441C193.479 166.27 193.58 166.061 193.65 165.814C193.721 165.564 193.756 165.285 193.756 164.977ZM197.869 159.264C198.826 160.061 199.539 160.922 200.008 161.848C200.477 162.77 200.711 163.764 200.711 164.83C200.711 165.424 200.641 165.984 200.5 166.512C200.359 167.039 200.162 167.537 199.908 168.006C199.658 168.475 199.357 168.912 199.006 169.318C198.654 169.729 198.268 170.109 197.846 170.461L197.025 169.646C197.791 168.963 198.365 168.223 198.748 167.426C199.131 166.629 199.322 165.793 199.322 164.918C199.322 164.035 199.131 163.184 198.748 162.363C198.365 161.543 197.791 160.793 197.025 160.113L197.869 159.264Z" fill="black"/>
<path d="M373.262 133.811C373.71 133.114 373.508 132.186 372.811 131.738L361.453 124.441C360.756 123.993 359.828 124.195 359.38 124.892C358.932 125.589 359.134 126.517 359.831 126.965L369.927 133.451L363.441 143.547C362.993 144.244 363.195 145.172 363.892 145.62C364.589 146.068 365.517 145.866 365.965 145.169L373.262 133.811ZM225.319 166.466L372.319 134.466L371.681 131.534L224.681 163.534L225.319 166.466Z" fill="black"/>
<path d="M869.782 50.1782C653.18 65.2422 608.452 76.364 603.844 114.571" stroke="#7DE77B" stroke-width="3"/>
<path d="M310.936 180.366C549.515 163.472 598.804 151.3 603.978 109.871" stroke="#7DE77B" stroke-width="3"/>
<path d="M550 89.3711H395C393.619 89.3711 392.5 90.4904 392.5 91.8711V125.871C392.5 127.252 393.619 128.371 395 128.371H550C551.381 128.371 552.5 127.252 552.5 125.871V91.8711C552.5 90.4904 551.381 89.3711 550 89.3711Z" fill="#7DE77B" stroke="black" stroke-width="3"/>
<path d="M446.215 111.146C446.215 111.739 446.141 112.278 445.993 112.763C445.848 113.247 445.619 113.661 445.307 114.005C444.998 114.345 444.602 114.608 444.118 114.796C443.633 114.979 443.053 115.071 442.377 115.071H440.432V107.413H442.7C443.286 107.413 443.797 107.487 444.235 107.636C444.676 107.78 445.043 108.005 445.336 108.31C445.629 108.614 445.848 109.001 445.993 109.47C446.141 109.938 446.215 110.497 446.215 111.146ZM444.668 111.239C444.668 110.825 444.635 110.456 444.569 110.132C444.502 109.808 444.389 109.534 444.229 109.312C444.073 109.085 443.862 108.913 443.596 108.796C443.33 108.679 443 108.62 442.606 108.62H441.873V113.864H442.506C443.213 113.864 443.75 113.653 444.118 113.231C444.485 112.81 444.668 112.146 444.668 111.239ZM450.563 108.614V115.071H449.086V108.614H446.989V107.413H452.661V108.614H450.563ZM459.504 111.21C459.504 111.905 459.422 112.505 459.258 113.009C459.098 113.513 458.875 113.927 458.59 114.251C458.309 114.575 457.977 114.815 457.594 114.972C457.215 115.128 456.809 115.206 456.375 115.206C455.368 115.206 454.61 114.872 454.102 114.204C453.594 113.532 453.34 112.558 453.34 111.28C453.34 110.585 453.42 109.985 453.58 109.481C453.744 108.978 453.967 108.563 454.248 108.239C454.534 107.915 454.866 107.675 455.244 107.519C455.627 107.362 456.036 107.284 456.469 107.284C457.477 107.284 458.235 107.618 458.743 108.286C459.25 108.954 459.504 109.929 459.504 111.21ZM457.981 111.28C457.981 110.374 457.86 109.698 457.618 109.253C457.375 108.808 456.977 108.585 456.422 108.585C456.145 108.585 455.909 108.644 455.713 108.761C455.518 108.874 455.356 109.042 455.227 109.265C455.102 109.487 455.01 109.763 454.952 110.091C454.893 110.415 454.864 110.788 454.864 111.21C454.864 112.116 454.985 112.792 455.227 113.237C455.473 113.683 455.871 113.905 456.422 113.905C456.7 113.905 456.936 113.849 457.131 113.735C457.33 113.618 457.493 113.448 457.618 113.226C457.743 113.003 457.834 112.729 457.893 112.405C457.952 112.077 457.981 111.702 457.981 111.28ZM465.446 113.319C465.446 113.659 465.369 113.95 465.217 114.192C465.069 114.431 464.869 114.626 464.619 114.778C464.373 114.927 464.092 115.034 463.776 115.101C463.463 115.171 463.143 115.206 462.815 115.206C462.377 115.206 461.983 115.185 461.631 115.142C461.28 115.103 460.948 115.044 460.635 114.966V113.677C461.002 113.829 461.368 113.94 461.731 114.011C462.098 114.077 462.444 114.11 462.768 114.11C463.143 114.11 463.422 114.052 463.606 113.935C463.793 113.813 463.887 113.657 463.887 113.466C463.887 113.376 463.868 113.294 463.828 113.22C463.789 113.146 463.715 113.075 463.606 113.009C463.5 112.938 463.35 112.868 463.155 112.798C462.959 112.724 462.703 112.642 462.387 112.552C462.094 112.47 461.836 112.378 461.614 112.276C461.395 112.171 461.213 112.048 461.069 111.907C460.924 111.767 460.815 111.604 460.741 111.421C460.67 111.233 460.635 111.015 460.635 110.765C460.635 110.522 460.69 110.294 460.799 110.079C460.909 109.864 461.071 109.677 461.286 109.517C461.504 109.353 461.776 109.224 462.1 109.13C462.424 109.036 462.803 108.989 463.237 108.989C463.612 108.989 463.944 109.009 464.233 109.048C464.522 109.087 464.778 109.13 465 109.177V110.343C464.661 110.233 464.34 110.157 464.039 110.114C463.743 110.067 463.448 110.044 463.155 110.044C462.862 110.044 462.625 110.097 462.446 110.202C462.27 110.308 462.182 110.454 462.182 110.642C462.182 110.731 462.2 110.812 462.235 110.882C462.27 110.952 462.338 111.021 462.44 111.087C462.545 111.153 462.69 111.224 462.873 111.298C463.061 111.368 463.307 111.446 463.612 111.532C463.955 111.63 464.244 111.735 464.479 111.849C464.713 111.958 464.901 112.083 465.041 112.224C465.186 112.364 465.289 112.524 465.352 112.704C465.414 112.884 465.446 113.089 465.446 113.319ZM477.358 117.532C476.409 116.728 475.696 115.864 475.219 114.942C474.746 114.021 474.51 113.028 474.51 111.966C474.51 111.372 474.58 110.812 474.721 110.284C474.862 109.753 475.059 109.255 475.313 108.79C475.571 108.325 475.875 107.89 476.227 107.483C476.582 107.073 476.971 106.69 477.393 106.335L478.207 107.149C477.446 107.833 476.873 108.571 476.491 109.364C476.108 110.157 475.916 110.991 475.916 111.866C475.916 112.753 476.108 113.606 476.491 114.427C476.873 115.243 477.446 115.989 478.207 116.665L477.358 117.532ZM484.494 115.071L484.073 113.56H481.401L480.967 115.071H479.537L481.805 107.413H483.821L486.088 115.071H484.494ZM482.754 108.819L481.746 112.382H483.75L482.754 108.819ZM492.217 109.851C492.217 110.249 492.151 110.618 492.018 110.958C491.885 111.294 491.688 111.585 491.426 111.831C491.164 112.077 490.838 112.269 490.448 112.405C490.057 112.542 489.604 112.61 489.088 112.61H488.356V115.071H486.903V107.413H489.147C489.643 107.413 490.08 107.468 490.459 107.577C490.842 107.683 491.162 107.839 491.42 108.046C491.682 108.253 491.879 108.509 492.012 108.813C492.149 109.114 492.217 109.46 492.217 109.851ZM490.705 109.95C490.705 109.747 490.672 109.563 490.606 109.399C490.543 109.231 490.446 109.089 490.313 108.972C490.184 108.854 490.02 108.765 489.821 108.702C489.621 108.64 489.385 108.608 489.112 108.608H488.356V111.415H489.159C489.409 111.415 489.629 111.382 489.821 111.315C490.012 111.245 490.172 111.146 490.301 111.017C490.434 110.888 490.534 110.733 490.6 110.554C490.67 110.374 490.705 110.173 490.705 109.95ZM493.588 108.591V107.413H498.428V108.591H496.741V113.882H498.428V115.071H493.588V113.882H495.276V108.591H493.588ZM501.493 106.335C502.45 107.132 503.162 107.993 503.631 108.919C504.1 109.841 504.334 110.835 504.334 111.901C504.334 112.495 504.264 113.056 504.123 113.583C503.983 114.11 503.786 114.608 503.532 115.077C503.282 115.546 502.981 115.983 502.629 116.39C502.278 116.8 501.891 117.181 501.469 117.532L500.649 116.718C501.414 116.034 501.989 115.294 502.371 114.497C502.754 113.7 502.946 112.864 502.946 111.989C502.946 111.106 502.754 110.255 502.371 109.435C501.989 108.614 501.414 107.864 500.649 107.185L501.493 106.335Z" fill="black"/>
<path d="M543.092 86.0704L526.327 70.8913C525.713 70.3353 524.717 70.3353 524.103 70.8913L507.338 86.0704C506.723 86.6264 506.723 87.5279 507.338 88.0839L524.103 103.263C524.717 103.819 525.713 103.819 526.327 103.263L543.092 88.0839C543.706 87.5279 543.706 86.6264 543.092 86.0704Z" fill="#FFFD54" stroke="black" stroke-width="3"/>
<path d="M522.295 85.0698V83.8921H527.135V85.0698H525.447V90.3608H527.135V91.5503H522.295V90.3608H523.982V85.0698H522.295Z" fill="black"/>
<path d="M572.75 106.938L590 96.9789C590.333 96.7864 590.75 97.027 590.75 97.4119V117.33C590.75 117.715 590.333 117.956 590 117.763L572.75 107.804C572.417 107.612 572.417 107.131 572.75 106.938Z" fill="#FFFD54" stroke="black" stroke-width="3"/>
<path d="M640 107.371H590" stroke="black" stroke-width="3"/>
<path d="M754 89.3711H644C642.619 89.3711 641.5 90.4904 641.5 91.8711V123.871C641.5 125.252 642.619 126.371 644 126.371H754C755.381 126.371 756.5 125.252 756.5 123.871V91.8711C756.5 90.4904 755.381 89.3711 754 89.3711Z" fill="#7DE77B" stroke="black" stroke-width="3"/>
<path d="M685.486 109.89C685.486 110.308 685.408 110.671 685.252 110.98C685.099 111.289 684.884 111.544 684.607 111.748C684.33 111.947 684 112.095 683.617 112.193C683.234 112.291 682.816 112.339 682.363 112.339C681.961 112.339 681.572 112.316 681.197 112.269C680.822 112.222 680.451 112.144 680.084 112.035V110.611C680.263 110.673 680.451 110.732 680.646 110.787C680.841 110.841 681.037 110.89 681.232 110.933C681.431 110.972 681.629 111.003 681.824 111.027C682.019 111.05 682.209 111.062 682.392 111.062C682.666 111.062 682.898 111.039 683.089 110.992C683.281 110.945 683.437 110.88 683.558 110.798C683.679 110.716 683.767 110.619 683.822 110.505C683.877 110.392 683.904 110.267 683.904 110.13C683.904 109.943 683.849 109.787 683.74 109.662C683.634 109.533 683.494 109.419 683.318 109.322C683.142 109.224 682.941 109.136 682.714 109.058C682.492 108.98 682.263 108.896 682.029 108.806C681.798 108.716 681.57 108.615 681.343 108.501C681.121 108.388 680.922 108.248 680.746 108.08C680.57 107.912 680.427 107.712 680.318 107.482C680.213 107.248 680.16 106.966 680.16 106.638C680.16 106.337 680.214 106.052 680.324 105.783C680.433 105.513 680.605 105.279 680.839 105.08C681.074 104.876 681.375 104.716 681.742 104.599C682.109 104.478 682.552 104.417 683.072 104.417C683.224 104.417 683.382 104.425 683.547 104.441C683.714 104.453 683.879 104.47 684.039 104.494C684.203 104.513 684.359 104.539 684.507 104.57C684.66 104.597 684.798 104.626 684.923 104.658V105.976C684.798 105.929 684.662 105.886 684.513 105.847C684.365 105.808 684.211 105.775 684.05 105.748C683.894 105.716 683.736 105.693 683.576 105.677C683.416 105.662 683.263 105.654 683.119 105.654C682.865 105.654 682.65 105.675 682.474 105.718C682.298 105.757 682.154 105.814 682.041 105.888C681.927 105.958 681.845 106.046 681.795 106.152C681.744 106.257 681.718 106.375 681.718 106.503C681.718 106.664 681.771 106.802 681.877 106.919C681.986 107.033 682.129 107.136 682.304 107.23C682.484 107.32 682.685 107.406 682.908 107.488C683.134 107.566 683.365 107.652 683.599 107.746C683.838 107.835 684.068 107.939 684.291 108.056C684.517 108.173 684.718 108.316 684.894 108.484C685.074 108.652 685.216 108.851 685.322 109.082C685.431 109.308 685.486 109.578 685.486 109.89ZM692.107 108.771C692.107 108.869 692.103 108.996 692.095 109.152C692.091 109.308 692.084 109.455 692.072 109.591H688.158C688.158 109.853 688.197 110.083 688.275 110.283C688.357 110.482 688.47 110.65 688.615 110.787C688.763 110.919 688.939 111.021 689.142 111.091C689.349 111.162 689.578 111.197 689.828 111.197C690.117 111.197 690.425 111.175 690.754 111.132C691.086 111.085 691.429 111.011 691.785 110.91V112.046C691.632 112.089 691.466 112.128 691.287 112.164C691.107 112.199 690.923 112.23 690.736 112.257C690.548 112.285 690.359 112.304 690.168 112.316C689.976 112.332 689.791 112.339 689.611 112.339C689.158 112.339 688.752 112.275 688.392 112.146C688.033 112.017 687.728 111.828 687.478 111.578C687.228 111.324 687.037 111.011 686.904 110.64C686.771 110.269 686.705 109.839 686.705 109.351C686.705 108.867 686.771 108.427 686.904 108.033C687.037 107.634 687.224 107.294 687.466 107.013C687.709 106.728 688.002 106.509 688.345 106.357C688.693 106.201 689.08 106.123 689.506 106.123C689.927 106.123 690.3 106.189 690.625 106.322C690.949 106.451 691.22 106.632 691.439 106.867C691.658 107.101 691.824 107.38 691.937 107.705C692.05 108.029 692.107 108.384 692.107 108.771ZM690.654 108.566C690.658 108.332 690.629 108.128 690.566 107.957C690.504 107.781 690.418 107.636 690.308 107.523C690.203 107.41 690.078 107.326 689.933 107.271C689.793 107.216 689.64 107.189 689.476 107.189C689.117 107.189 688.822 107.31 688.591 107.552C688.361 107.791 688.224 108.128 688.181 108.566H690.654ZM697.351 108.566C697.359 108.343 697.347 108.154 697.316 107.998C697.289 107.841 697.242 107.712 697.175 107.611C697.113 107.509 697.035 107.435 696.941 107.388C696.847 107.341 696.74 107.318 696.619 107.318C696.408 107.318 696.189 107.406 695.963 107.582C695.74 107.753 695.494 108.039 695.224 108.437V112.205H693.759V106.251H695.054L695.107 107.119C695.205 106.966 695.314 106.83 695.435 106.708C695.56 106.587 695.697 106.484 695.845 106.398C695.998 106.308 696.166 106.24 696.349 106.193C696.533 106.146 696.734 106.123 696.953 106.123C697.254 106.123 697.519 106.175 697.75 106.281C697.984 106.382 698.179 106.535 698.336 106.738C698.496 106.941 698.613 107.197 698.687 107.505C698.765 107.81 698.798 108.164 698.787 108.566H697.351ZM703.445 112.205H701.798L699.437 106.251H701.031L702.267 109.626L702.636 110.716L703 109.673L704.248 106.251H705.783L703.445 112.205ZM711.9 108.771C711.9 108.869 711.896 108.996 711.888 109.152C711.884 109.308 711.877 109.455 711.865 109.591H707.951C707.951 109.853 707.99 110.083 708.068 110.283C708.15 110.482 708.263 110.65 708.408 110.787C708.556 110.919 708.732 111.021 708.935 111.091C709.142 111.162 709.371 111.197 709.621 111.197C709.91 111.197 710.218 111.175 710.547 111.132C710.879 111.085 711.222 111.011 711.578 110.91V112.046C711.425 112.089 711.259 112.128 711.08 112.164C710.9 112.199 710.716 112.23 710.529 112.257C710.341 112.285 710.152 112.304 709.961 112.316C709.769 112.332 709.584 112.339 709.404 112.339C708.951 112.339 708.545 112.275 708.185 112.146C707.826 112.017 707.521 111.828 707.271 111.578C707.021 111.324 706.83 111.011 706.697 110.64C706.564 110.269 706.498 109.839 706.498 109.351C706.498 108.867 706.564 108.427 706.697 108.033C706.83 107.634 707.017 107.294 707.259 107.013C707.502 106.728 707.795 106.509 708.138 106.357C708.486 106.201 708.873 106.123 709.298 106.123C709.72 106.123 710.093 106.189 710.418 106.322C710.742 106.451 711.013 106.632 711.232 106.867C711.451 107.101 711.617 107.38 711.73 107.705C711.843 108.029 711.9 108.384 711.9 108.771ZM710.447 108.566C710.451 108.332 710.422 108.128 710.359 107.957C710.297 107.781 710.211 107.636 710.101 107.523C709.996 107.41 709.871 107.326 709.726 107.271C709.586 107.216 709.433 107.189 709.269 107.189C708.91 107.189 708.615 107.31 708.384 107.552C708.154 107.791 708.017 108.128 707.974 108.566H710.447ZM717.144 108.566C717.152 108.343 717.14 108.154 717.109 107.998C717.082 107.841 717.035 107.712 716.968 107.611C716.906 107.509 716.828 107.435 716.734 107.388C716.64 107.341 716.533 107.318 716.412 107.318C716.201 107.318 715.982 107.406 715.756 107.582C715.533 107.753 715.287 108.039 715.017 108.437V112.205H713.552V106.251H714.847L714.9 107.119C714.998 106.966 715.107 106.83 715.228 106.708C715.353 106.587 715.49 106.484 715.638 106.398C715.791 106.308 715.959 106.24 716.142 106.193C716.326 106.146 716.527 106.123 716.746 106.123C717.047 106.123 717.312 106.175 717.543 106.281C717.777 106.382 717.972 106.535 718.129 106.738C718.289 106.941 718.406 107.197 718.48 107.505C718.558 107.81 718.591 108.164 718.58 108.566H717.144Z" fill="black"/>
</g>
<defs>
<filter id="filter0_d_205_227" x="0" y="0" width="929" height="217" filterUnits="userSpaceOnUse" color-interpolation-filters="sRGB">
<feFlood flood-opacity="0" result="BackgroundImageFix"/>
<feColorMatrix in="SourceAlpha" type="matrix" values="0 0 0 0 0 0 0 0 0 0 0 0 0 0 0 0 0 0 127 0" result="hardAlpha"/>
<feOffset dy="4"/>
<feGaussianBlur stdDeviation="2"/>
<feComposite in2="hardAlpha" operator="out"/>
<feColorMatrix type="matrix" values="0 0 0 0 0 0 0 0 0 0 0 0 0 0 0 0 0 0 0.25 0"/>
<feBlend mode="normal" in2="BackgroundImageFix" result="effect1_dropShadow_205_227"/>
<feBlend mode="normal" in="SourceGraphic" in2="effect1_dropShadow_205_227" result="shape"/>
</filter>
<clipPath id="clip0_205_227">
<rect width="921" height="209" fill="white" transform="translate(4)"/>
</clipPath>
</defs>
</svg>
